<svg xmlns="http://www.w3.org/2000/svg" width="28" height="28" fill="none" viewBox="0 0 28 28">
  <path fill="#39BE00" d="M16.043 21.306c-2.176-.808-4.415-.932-6.467-.373-1.43.373-2.798 1.12-4.042 2.052l-.87.747-.249.248.56.498c.062 0 .062.062.124.124.124.124.249.187.435.31l.373.25.373-.311c.063-.062.187-.187.311-.249 1.12-.933 2.363-1.555 3.67-1.865 1.678-.436 3.481-.373 5.285.31 1.492.56 4.539 1.244 8.208-.31l.124-.063.186-.186c0-.062.063-.062.125-.125.31-.373.622-.746.87-1.181l1.244-1.928-1.99 1.12c-2.922 1.616-5.596 1.927-8.27.932ZM7.524 14.59c1.679-.435 3.482-.373 5.285.312 1.99.746 7.089 1.803 12.81-3.358l.932-.933.063-.062.248-.249-.124-.31c-.062-.25-.187-.56-.311-.871l-.311-.871-.622.622c-.062.124-.186.186-.31.31-2.737 2.799-6.965 5.66-11.815 3.918-2.177-.808-4.415-.933-6.467-.373-1.99.56-3.731 1.617-5.348 3.11v-.063l-.933.995c0 .062-.062.062-.124.124l-.186.187.062.249c.062.31.186.621.248.932l.374.995.621-.808c.063-.125.187-.187.25-.311 1.305-1.182 3.108-2.86 5.658-3.544Z"/>
  <path fill="#39BE00" d="M1.492 13.471c1.43-1.492 3.047-2.425 4.788-2.922 1.68-.435 3.483-.373 5.286.31 5.596 2.053 10.446-1.305 12.56-3.108l.809-.809.31-.249-.248-.373c-.186-.186-.31-.435-.497-.684l-.373-.497-.436.435-.248.249C20.83 8.31 16.789 10.86 12.188 9.119c-2.177-.809-4.415-.933-6.467-.374-1.306.374-2.55.995-3.793 1.804L.622 11.606l-.311.31-.124.125v.187c-.063.435-.063.87-.125 1.243L0 15.026l1.057-1.12c.124-.124.249-.31.435-.435Zm16.355 12.064-.125.373.125-.373c-.187-.063-.311-.125-.498-.187-2.176-.808-4.415-.933-6.467-.373-.435.124-.87.249-1.306.435l-1.492.684-.373.187 1.244.435 1.119.373.186.062.187-.062c.187-.062.373-.186.56-.186.124 0 .248-.063.373-.125 1.492-.373 3.109-.373 4.85.187.186.062.31.124.497.186l.311.125.187-.063c.435-.124.932-.248 1.306-.435l1.74-.621-1.803-.436c-.186-.062-.435-.124-.621-.186Zm9.513-12.872-.933.933-.373.373c-2.55 2.425-6.653 5.037-11.255 3.296-2.176-.809-4.415-.933-6.467-.373-1.928.56-3.669 1.554-5.223 3.046l-.809.87-.248.312.248.373a4.2 4.2 0 0 1 .436.684l.373.56.435-.56.249-.249c1.492-1.617 3.109-2.611 4.974-3.109 1.68-.435 3.483-.373 5.286.311 1.554.56 3.171.746 4.788.56 2.86-.311 5.72-1.928 7.835-3.731.124-.125.248-.187.373-.311l.186-.187v-.186c0-.373.063-.809.063-1.182l.062-1.43Z"/>
  <path fill="#39BE00" d="m3.73 6.942-.186-.373.186.373c.374-.186.809-.31 1.182-.435 1.679-.435 3.482-.373 5.285.31 1.182.436 2.363.623 3.67.623 2.61 0 5.222-.933 7.648-2.736l.932-.746.311-.25-.56-.434a2.762 2.762 0 0 0-.683-.498l-.374-.249-.31.25c-.125.061-.187.186-.311.248-3.296 2.487-6.592 3.171-9.7 1.99-2.24-.809-4.478-.995-6.716-.311a7.835 7.835 0 0 1-.622.186l-.125.062-.186.187c0 .062-.062.062-.125.124-.248.373-.56.684-.808 1.057L1.057 8.124l1.927-.995c.311 0 .56-.125.746-.187Zm5.1-4.228.186.062c.809.311 2.052.622 3.607.622 1.617 0 3.171-.373 4.726-.995l1.927-.933-1.306-.435c-.373-.124-.746-.249-1.181-.31h-.187l-.186.061c-.187.062-.373.187-.56.249-1.865.684-3.73.808-5.534.31l-.56-.186-.186-.062-.187.062c-.373.125-.746.25-1.119.436l-1.43.621 1.492.436c.125-.062.311 0 .498.062Z"/>
</svg>
