<svg xmlns="http://www.w3.org/2000/svg" width="686" height="1024" fill="none" viewBox="0 0 686 1024">
  <g opacity=".4">
    <path fill="#39BE00" d="M453.748 792.709c87.262-32.412 177.017-37.397 259.292-14.959 57.344 14.96 112.194 44.878 162.059 82.276l34.905 29.918 9.973 9.973-22.439 19.945c-2.493 0-2.494 2.494-4.987 4.987-4.986 4.986-9.973 7.48-17.452 12.466l-14.959 9.973-14.959-12.466c-2.494-2.494-7.48-7.48-12.466-9.973-44.878-37.398-94.742-62.33-147.099-74.796-67.317-17.452-139.619-14.959-211.922 12.466-59.837 22.439-182.004 49.864-329.103-12.466l-4.987-2.493-7.479-7.48c0-2.493-2.493-2.493-4.987-4.986-12.466-14.96-24.931-29.919-34.904-47.371L42.37 710.434l79.782 44.877c117.181 64.823 224.388 77.289 331.596 37.398Zm341.587-269.27c-67.316-17.453-139.619-14.96-211.922 12.466-79.782 29.918-284.225 72.303-513.6-134.633l-37.398-37.398-2.493-2.493-9.973-9.973 4.987-12.466c2.493-9.973 7.48-22.439 12.466-34.905l12.466-34.905L74.8 294.064c2.493 4.986 7.48 7.479 12.466 12.466 109.701 112.194 279.239 226.882 473.708 157.072 87.262-32.412 177.017-37.398 259.293-14.959 79.782 22.438 149.592 64.823 214.413 124.66v-2.494l37.4 39.892c0 2.493 2.49 2.493 4.99 4.986l7.48 7.48-2.5 9.972c-2.49 12.466-7.48 24.932-9.97 37.398l-14.96 39.892-24.93-32.412c-2.49-4.986-7.48-7.479-9.97-12.466-52.361-47.37-124.664-114.687-226.885-142.112Z"/>
    <path fill="#39BE00" d="M1037.16 478.567c-57.341-59.837-122.164-97.235-191.973-117.181-67.317-17.452-139.62-14.959-211.922 12.466-224.389 82.276-418.858-52.357-503.627-124.66l-32.412-32.411-12.466-9.973 9.973-14.959c7.48-7.48 12.466-17.453 19.945-27.425l14.96-19.946 17.452 17.452 9.973 9.973c104.714 99.728 266.773 201.95 451.27 132.14 87.262-32.412 177.017-37.398 259.292-14.959 52.357 14.959 102.222 39.891 152.085 72.302l52.36 42.385c4.98 4.986 7.48 7.48 12.46 12.466l4.99 4.986v7.48c2.49 17.452 2.49 34.905 4.99 49.864l2.49 62.33-42.38-44.878c-4.99-4.986-9.98-12.466-17.46-17.452ZM381.436 962.251l4.986 14.959-4.986-14.959c7.479-2.493 12.465-4.987 19.945-7.48 87.262-32.412 177.018-37.397 259.294-14.959 17.452 4.987 34.904 9.973 52.356 17.452l59.838 27.426 14.958 7.479-49.864 17.451c-14.959 4.99-29.918 9.97-44.877 14.96l-7.479 2.49-7.481-2.49c-7.479-2.49-14.959-7.48-22.438-7.48-4.987 0-9.973-2.49-14.96-4.98-59.836-14.964-124.659-14.964-194.469 7.47-7.48 2.5-12.466 4.99-19.946 7.48l-12.466 4.99-7.479-2.49c-17.453-4.99-37.398-9.98-52.358-17.45l-69.809-24.937 72.303-17.453c7.479-2.493 17.452-4.986 24.932-7.479ZM0 446.151l37.398 37.398 14.958 14.96c102.221 97.235 266.773 201.949 451.27 132.139 87.262-32.412 177.017-37.397 259.292-14.959 77.29 22.439 147.1 62.33 209.43 122.167l32.412 34.905 9.97 12.466-9.97 14.959c-7.48 9.973-12.467 17.453-17.453 27.425l-14.959 22.439-17.453-22.439-9.972-9.973c-59.837-64.823-124.66-104.714-199.456-124.66-67.317-17.452-139.62-14.959-211.923 12.466-62.33 22.439-127.153 29.919-191.976 22.439-114.688-12.466-229.375-77.289-314.144-149.592-4.986-4.986-9.972-7.479-14.958-12.466l-7.48-7.48v-7.479c0-14.959-2.494-32.411-2.494-47.371L0 446.151Z"/>
    <path fill="#39BE00" d="m947.424 216.774 7.479-14.96-7.479 14.96c-14.96-7.48-32.413-12.467-47.372-17.453-67.316-17.452-139.619-14.959-211.922 12.466-47.371 17.452-94.741 24.932-147.099 24.932-104.714 0-209.428-37.398-306.663-109.701L196.97 97.1l-12.466-9.973 22.439-17.453c7.479-7.48 17.452-14.959 27.425-19.945l14.959-9.973 12.466 9.973c4.987 2.493 7.48 7.48 12.466 9.973 132.14 99.728 264.279 127.153 388.939 79.782 89.755-32.411 179.511-39.89 269.266-12.466 7.48 2.494 14.959 4.986 24.932 7.48l4.986 2.493 7.48 7.479c0 2.494 2.493 2.494 4.986 4.987 9.973 14.959 22.439 27.426 32.412 42.385l47.37 72.302-77.289-39.891c-12.466 0-22.438-4.986-29.917-7.479ZM742.968 47.237l-7.479 2.493c-32.412 12.466-82.276 24.932-144.606 24.932-64.823 0-127.154-14.959-189.484-39.891L324.111-2.627l52.356-17.452c14.96-4.986 29.919-9.973 47.372-12.466h7.479l7.479 2.493c7.48 2.493 14.96 7.48 22.44 9.973C536.033 7.346 610.829 12.333 683.132-7.613l22.438-7.48 7.48-2.493 7.48 2.493c14.959 4.986 29.918 9.973 44.877 17.453l57.344 24.932-59.837 17.452c-4.987-2.493-12.466 0-19.946 2.493Z"/>
  </g>
</svg>
