<svg xmlns="http://www.w3.org/2000/svg" width="28" height="27" fill="none" viewBox="0 0 28 27">
  <path fill="#39BE00" d="M16.043 20.582c-2.176-.808-4.415-.932-6.467-.373-1.43.373-2.798 1.12-4.042 2.052l-.87.746-.249.25.56.496c.062 0 .062.063.124.125.124.124.249.186.435.31l.373.25.373-.311c.063-.063.187-.187.311-.25 1.12-.932 2.363-1.554 3.67-1.864 1.678-.436 3.481-.374 5.285.31 1.492.56 4.539 1.244 8.208-.31l.124-.063.186-.186c0-.062.063-.063.125-.125.31-.373.622-.746.87-1.181l1.244-1.928-1.99 1.12c-2.922 1.616-5.596 1.927-8.27.932Zm-8.519-6.715c1.679-.436 3.482-.374 5.286.31 1.99.747 7.088 1.804 12.809-3.357l.933-.933.062-.062.249-.25-.125-.31c-.062-.249-.186-.56-.31-.87l-.312-.871-.621.622c-.063.124-.187.186-.311.31-2.736 2.799-6.965 5.66-11.815 3.918-2.176-.808-4.415-.933-6.467-.373-1.99.56-3.73 1.617-5.347 3.11v-.063l-.933.995c0 .062-.062.062-.124.124l-.187.187.062.248c.062.311.187.622.249.933l.373.995.622-.808c.062-.125.186-.187.249-.311 1.305-1.182 3.109-2.86 5.658-3.545Z"/>
  <path fill="#39BE00" d="M1.492 12.747c1.43-1.492 3.047-2.425 4.788-2.922 1.68-.435 3.483-.373 5.286.31 5.596 2.053 10.446-1.305 12.56-3.108l.809-.809.31-.248-.248-.373c-.186-.187-.31-.436-.497-.685l-.373-.497-.436.435-.248.249c-2.612 2.487-6.654 5.037-11.255 3.296-2.177-.809-4.415-.933-6.467-.373-1.306.373-2.55.995-3.793 1.803L.622 10.882l-.311.31-.124.125v.187c-.063.435-.063.87-.125 1.243L0 14.302l1.057-1.12c.124-.124.249-.31.435-.435ZM17.846 24.81l-.124.374.124-.373c-.186-.062-.31-.125-.497-.187-2.177-.808-4.415-.932-6.467-.373-.436.124-.87.249-1.306.435l-1.492.684-.374.187 1.244.435 1.12.373.186.063.186-.063c.187-.062.373-.186.56-.186.124 0 .249-.062.373-.125 1.492-.373 3.11-.373 4.85.187.187.062.311.124.498.186l.31.125.187-.062c.436-.125.933-.25 1.306-.436l1.741-.621-1.803-.436c-.187-.062-.435-.124-.622-.186Zm9.514-12.871-.933.933-.373.373c-2.55 2.425-6.653 5.037-11.255 3.295-2.176-.808-4.415-.932-6.467-.373-1.928.56-3.669 1.555-5.223 3.047l-.809.87-.248.312.248.373c.187.248.311.435.436.684l.373.56.435-.56.249-.249c1.492-1.617 3.109-2.612 4.974-3.109 1.68-.435 3.483-.373 5.286.31 1.554.56 3.171.747 4.788.56 2.86-.31 5.72-1.927 7.835-3.73.124-.125.248-.187.373-.311l.186-.187v-.186c0-.373.063-.809.063-1.182l.062-1.43Z"/>
  <path fill="#39BE00" d="m3.73 6.218-.186-.373.187.373c.373-.186.808-.31 1.181-.435 1.68-.435 3.483-.373 5.286.31 1.181.436 2.363.623 3.669.623 2.611 0 5.223-.933 7.648-2.736l.933-.747.31-.248-.56-.436a2.759 2.759 0 0 0-.683-.497l-.373-.249-.311.249c-.124.062-.187.186-.311.249-3.296 2.487-6.591 3.17-9.7 1.99-2.239-.809-4.477-.995-6.716-.311a7.83 7.83 0 0 1-.622.186l-.124.062-.187.187c0 .062-.062.062-.124.124-.249.373-.56.684-.808 1.057L1.057 7.4l1.928-.995c.31 0 .56-.125.746-.187Zm5.1-4.228.186.062c.809.31 2.052.622 3.607.622 1.617 0 3.171-.373 4.726-.995l1.927-.933L17.97.311C17.597.187 17.224.062 16.79 0h-.187l-.186.062c-.187.062-.373.187-.56.249-1.865.684-3.73.808-5.534.31l-.56-.186-.186-.062-.187.062c-.374.125-.747.249-1.12.436l-1.43.621 1.492.436c.125-.063.311 0 .498.062Z"/>
</svg>
