<svg xmlns="http://www.w3.org/2000/svg" width="29" height="28" fill="none" viewBox="0 0 29 28">
  <path fill="#39BE00" d="M17.016 21.306c-2.177-.808-4.415-.932-6.467-.373-1.43.373-2.798 1.12-4.042 2.052l-.87.747-.25.248.56.498c.063 0 .063.062.125.124.124.124.248.187.435.31l.373.25.373-.311c.062-.062.187-.187.311-.249 1.12-.933 2.363-1.555 3.669-1.865 1.679-.436 3.482-.373 5.285.31 1.493.56 4.54 1.244 8.208-.31l.125-.063.186-.186c0-.062.062-.062.125-.125.31-.373.621-.746.87-1.181l1.244-1.928-1.99 1.12c-2.923 1.616-5.597 1.927-8.27.932Zm-8.52-6.716c1.68-.435 3.482-.373 5.286.312 1.99.746 7.088 1.803 12.81-3.358l.932-.933.062-.062.249-.249-.125-.31c-.062-.25-.186-.56-.31-.871l-.311-.871-.622.622c-.062.124-.187.186-.311.31-2.736 2.799-6.964 5.66-11.815 3.918-2.176-.808-4.415-.933-6.467-.373-1.99.56-3.73 1.617-5.347 3.11v-.063l-.933.995c0 .062-.062.062-.124.124l-.187.187.062.249c.063.31.187.621.25.932l.372.995.622-.808c.062-.125.187-.187.249-.311 1.306-1.182 3.109-2.86 5.658-3.544Z"/>
  <path fill="#39BE00" d="M2.465 13.471c1.43-1.492 3.047-2.425 4.788-2.922 1.679-.435 3.482-.373 5.286.31 5.596 2.053 10.446-1.305 12.56-3.108l.809-.809.31-.249-.248-.373c-.187-.186-.311-.435-.498-.684L25.1 5.14l-.435.435-.249.249C21.804 8.31 17.762 10.86 13.16 9.119c-2.176-.809-4.415-.933-6.467-.374-1.305.374-2.55.995-3.793 1.804l-1.306 1.057-.31.31-.125.125v.187c-.062.435-.062.87-.124 1.243l-.062 1.555 1.057-1.12c.124-.124.248-.31.435-.435ZM18.82 25.535l-.125.373.124-.373c-.186-.063-.31-.125-.497-.187-2.177-.808-4.415-.933-6.467-.373-.435.124-.87.249-1.306.435l-1.492.684-.373.187 1.243.435 1.12.373.186.062.187-.062c.186-.062.373-.186.56-.186.124 0 .248-.063.372-.125 1.493-.373 3.11-.373 4.85.187.187.062.311.124.498.186l.31.125.187-.063c.436-.124.933-.248 1.306-.435l1.741-.621-1.803-.436c-.186-.062-.435-.124-.622-.186Zm9.512-12.872-.932.933-.373.373c-2.55 2.425-6.654 5.037-11.255 3.296-2.177-.809-4.415-.933-6.467-.373-1.928.56-3.669 1.554-5.224 3.046l-.808.87-.249.312.25.373c.186.249.31.435.434.684l.373.56.436-.56.248-.249c1.493-1.617 3.11-2.611 4.975-3.109 1.679-.435 3.482-.373 5.285.311 1.555.56 3.172.746 4.789.56 2.86-.311 5.72-1.928 7.834-3.731.125-.125.25-.187.373-.311l.187-.187v-.186c0-.373.062-.809.062-1.182l.062-1.43Z"/>
  <path fill="#39BE00" d="m4.703 6.942-.186-.373.186.373c.373-.186.808-.31 1.182-.435 1.678-.435 3.482-.373 5.285.31 1.181.436 2.363.623 3.669.623 2.611 0 5.223-.933 7.648-2.736l.933-.746.31-.25-.559-.434a2.76 2.76 0 0 0-.684-.498l-.373-.249-.31.25c-.125.061-.187.186-.312.248-3.295 2.487-6.591 3.171-9.7 1.99-2.239-.809-4.477-.995-6.716-.311a7.832 7.832 0 0 1-.622.186l-.124.062-.187.187c0 .062-.062.062-.124.124-.249.373-.56.684-.808 1.057L2.029 8.124l1.928-.995c.31 0 .56-.125.746-.187Zm5.099-4.228.187.062c.808.311 2.052.622 3.606.622 1.617 0 3.172-.373 4.726-.995l1.928-.933-1.306-.435c-.373-.124-.746-.249-1.181-.31h-.187l-.186.061c-.187.062-.374.187-.56.249-1.866.684-3.731.808-5.534.31a61.15 61.15 0 0 1-.56-.186l-.186-.062-.187.062c-.373.125-.746.25-1.12.436l-1.43.621 1.493.436c.124-.062.31 0 .497.062Z"/>
</svg>
