<svg xmlns="http://www.w3.org/2000/svg" width="20" height="20" fill="none" viewBox="0 0 20 20">
  <path stroke="#39BE00" stroke-width="1.6" d="M4.583 6.417 3.19 7.81a3.333 3.333 0 0 0 0 4.714l1.393 1.393m0-7.5 3.06-3.06a3.333 3.333 0 0 1 4.714 0l3.06 3.06m-10.834 0h1.77c.202 0 .397.073.55.206l2.548 2.23a.833.833 0 0 0 1.098 0l2.549-2.23a.833.833 0 0 1 .548-.206h1.77m0 0L16.81 7.81a3.333 3.333 0 0 1 0 4.714l-1.393 1.393m-10.834 0 3.06 3.06a3.333 3.333 0 0 0 4.714 0l3.06-3.06m-10.834 0h1.845a.829.829 0 0 0 .441-.127l2.69-1.68a.833.833 0 0 1 .883 0l2.689 1.68a.833.833 0 0 0 .441.127h1.845"/>
</svg>
